<svg width="1013" height="300" viewBox="0 0 1013 300" fill="none" xmlns="http://www.w3.org/2000/svg">
<path fill-rule="evenodd" clip-rule="evenodd" d="M135.002 50C152.962 50.0004 168.269 53.1538 180.917 59.4666C193.565 65.5273 203.178 74.3706 209.755 85.9865C216.584 97.3492 220 111.109 220 127.269V217.738C219.999 235.023 206.088 249.09 188.773 249.286C161.249 249.597 124.074 250 114.503 250H81.6208C64.1567 250 50.0003 235.867 50 218.434V164.14C50.0006 146.707 64.1569 132.574 81.6208 132.574H174.466C174.466 122.473 173.074 114.138 170.292 107.572C167.509 100.755 163.207 95.7038 157.389 92.4211C151.571 89.1388 144.108 87.5007 135.002 87.5003C124.631 87.5003 115.773 89.8966 108.437 94.694C101.102 99.239 96.5495 106.31 94.7783 115.905H50C51.5182 102.269 56.0697 90.6521 63.6585 81.0567C71.2471 71.2096 81.2391 63.6352 93.633 58.3324C106.282 52.7768 120.076 50 135.002 50ZM136.922 157.736C126.734 157.736 118.472 165.982 118.472 176.151C118.472 183.19 122.432 189.303 128.247 192.401L123.925 212.763C123.23 216.034 125.725 219.111 129.074 219.113H144.76C148.11 219.112 150.612 216.034 149.918 212.763L145.587 192.401C151.404 189.303 155.366 183.192 155.367 176.151C155.367 165.983 147.108 157.737 136.922 157.736Z" fill="black"/>
<path d="M709.027 218.386L745.891 110.23H780.26L728.706 250H688.794L637.24 110.23H672.164L709.027 218.386ZM371.232 103.538C388.602 103.538 403.199 108.16 415.025 117.404C426.851 126.463 434.427 138.943 437.753 154.843H402.83C400.982 147.817 397.101 142.271 391.188 138.203C385.46 134.136 378.623 132.103 370.678 132.103C363.841 132.103 357.559 133.859 351.831 137.371C346.288 140.884 341.852 145.968 338.526 152.624C335.385 159.28 333.814 167.322 333.814 176.751C333.814 183.961 334.738 190.339 336.586 195.886C338.434 201.432 341.021 206.147 344.347 210.029C347.857 213.727 351.831 216.592 356.266 218.626C360.7 220.66 365.504 221.677 370.678 221.677C376.036 221.677 380.841 220.845 385.091 219.181C389.526 217.332 393.221 214.651 396.178 211.139C399.319 207.626 401.537 203.466 402.83 198.659H437.753C434.427 214.189 426.851 226.669 415.025 236.098C403.199 245.342 388.509 249.964 370.955 249.964C357.282 249.964 344.994 246.913 334.092 240.812C323.375 234.527 314.967 225.929 308.869 215.021C302.956 203.929 300 191.357 300 177.306C300 162.7 302.956 149.943 308.869 139.035C314.967 127.942 323.375 119.253 334.092 112.967C344.994 106.681 357.374 103.538 371.232 103.538ZM571.478 103.538C585.151 103.538 597.07 106.588 607.232 112.689C617.395 118.79 625.249 127.018 630.792 137.371C636.335 147.539 639.106 159.002 639.106 171.759V177.86C639.106 180.079 638.922 182.39 638.553 184.793H533.892C534.297 191.85 535.831 198.044 538.494 203.374C541.82 209.66 546.255 214.467 551.799 217.795C557.527 220.938 563.902 222.509 570.923 222.509C578.683 222.509 585.059 220.845 590.048 217.518C595.222 214.19 599.01 209.752 601.412 204.206H635.227C632.64 212.895 628.389 220.753 622.477 227.778C616.564 234.619 609.265 240.072 600.58 244.14C591.895 248.022 582.102 249.964 571.2 249.964C557.342 249.964 545.147 247.006 534.614 241.09C524.082 234.989 515.859 226.484 509.946 215.576C504.033 204.668 501.076 192.096 501.076 177.86C501.076 163.07 503.941 150.128 509.669 139.035C515.582 127.942 523.805 119.253 534.337 112.967C545.054 106.681 557.434 103.538 571.478 103.538ZM843.569 103.538C856.689 103.538 867.868 105.85 877.106 110.472C886.345 114.909 893.368 121.379 898.172 129.884C903.161 138.203 905.655 148.279 905.655 160.111V246.636H877.384L874.058 224.173C872.21 227.87 869.808 231.291 866.852 234.434C864.08 237.576 860.846 240.35 857.15 242.753C853.455 244.971 849.205 246.728 844.4 248.022C839.781 249.317 834.514 249.964 828.602 249.964C817.145 249.964 807.63 248.022 800.054 244.14C792.478 240.257 786.842 235.081 783.146 228.61C779.451 222.14 777.603 215.113 777.603 207.533C777.603 198.659 779.82 190.986 784.255 184.516C788.874 178.045 795.619 173.054 804.488 169.541C813.358 165.843 824.26 163.994 837.194 163.994H872.395C872.395 156.599 871.378 150.498 869.346 145.691C867.313 140.7 864.172 137.002 859.922 134.599C855.672 132.195 850.221 130.993 843.569 130.993C835.993 130.993 829.526 132.749 824.167 136.262C818.808 139.59 815.483 144.767 814.189 151.792H781.483C782.592 141.808 785.918 133.304 791.461 126.278C797.004 119.068 804.303 113.522 813.357 109.64C822.596 105.572 832.667 103.538 843.569 103.538ZM941.748 209.871C947.845 209.871 952.835 211.812 956.715 215.694C960.595 219.577 962.535 224.384 962.535 230.115C962.535 235.477 960.595 240.099 956.715 243.981C952.835 247.864 947.846 249.806 941.748 249.806C935.466 249.806 930.383 247.864 926.503 243.981C922.623 240.099 920.683 235.477 920.683 230.115C920.683 224.384 922.623 219.577 926.503 215.694C930.383 211.812 935.466 209.871 941.748 209.871ZM485.507 249.671H452.246V50H485.507V249.671ZM840.797 185.625C834.33 185.625 828.971 186.457 824.722 188.121C820.472 189.6 817.423 191.819 815.575 194.777C813.727 197.735 812.803 201.156 812.803 205.038C812.803 208.92 813.727 212.248 815.575 215.021C817.423 217.795 820.103 219.92 823.613 221.399C827.124 222.878 831.281 223.618 836.085 223.618C841.443 223.618 846.156 222.693 850.221 220.845C854.471 218.811 858.074 216.038 861.03 212.525C864.172 208.828 866.574 204.76 868.237 200.323C869.9 195.886 871.009 191.171 871.563 186.18V185.625H840.797ZM571.2 130.716C564.363 130.716 558.081 132.287 552.353 135.43C546.624 138.573 542.097 143.287 538.771 149.573C536.628 153.504 535.177 158.127 534.415 163.439H605.569C605.2 153.271 601.782 145.321 595.314 139.59C588.847 133.674 580.809 130.716 571.2 130.716Z" fill="black"/>
</svg>
